<svg id="Layer_1_1_" enable-background="new 0 0 64 64" height="512" viewBox="0 0 64 64" width="512" xmlns="http://www.w3.org/2000/svg"><path d="m58 2h-2v39c0 .55127-.44873 1-1 1s-1-.44873-1-1v-9h-2v9 2c0 .55127-.44873 1-1 1s-1-.44873-1-1v-11h-2v11 2c0 .55127-.44873 1-1 1s-1-.44873-1-1v-2-11h-2v11c0 .55127-.44873 1-1 1s-1-.44873-1-1v-14c0-.55225-.44775-1-1-1h-1c-.26514 0-.51953.10547-.70703.29297l-2.37891 2.37891c-.21191.21142-.49316.32812-.79297.32812-.61816 0-1.12109-.50293-1.12109-1.12109 0-.2998.1167-.58105.32812-.79297l5.08594-5.08594h.58594c.55225 0 1-.44775 1-1v-21h-2v16h-16v-16h-2v21c0 .55225.44775 1 1 1h.58594l5.08594 5.08594c.21142.21191.32812.49316.32812.79297 0 .61816-.50293 1.12109-1.12109 1.12109-.2998 0-.58105-.1167-.79297-.32812l-2.37891-2.37891c-.1875-.1875-.44189-.29297-.70703-.29297h-1c-.55225 0-1 .44775-1 1v14c0 .55127-.44873 1-1 1s-1-.44873-1-1v-11h-2v11 2c0 .55127-.44873 1-1 1s-1-.44873-1-1v-2-11h-2v11c0 .55127-.44873 1-1 1s-1-.44873-1-1v-2-9h-2v9c0 .55127-.44873 1-1 1s-1-.44873-1-1v-39h-2v16h-4v2h4v21c0 1.6543 1.3457 3 3 3 .39484 0 .77014-.08105 1.11572-.22028.34577 1.27497 1.50141 2.22028 2.88428 2.22028.39484 0 .77014-.08105 1.11572-.22028.34577 1.27497 1.50141 2.22028 2.88428 2.22028 1.38293 0 2.53851-.94531 2.88428-2.22028.34558.13923.72082.22028 1.11572.22028 1.6543 0 3-1.3457 3-3v-12.58594l1.67188 1.67188c.58935.58935 1.37304.91406 2.20703.91406 1.72119 0 3.12109-1.3999 3.12109-3.12109 0-.83398-.32471-1.61768-.91406-2.20703l-5.37891-5.37891c-.1875-.1875-.44189-.29297-.70703-.29297v-2h16v2c-.26514 0-.51953.10547-.70703.29297l-5.37891 5.37891c-.58935.58935-.91406 1.37304-.91406 2.20703 0 1.72119 1.3999 3.12109 3.12109 3.12109.83398 0 1.61768-.32471 2.20703-.91406l1.67188-1.67188v12.58594c0 1.6543 1.3457 3 3 3 .39484 0 .77014-.08105 1.11572-.22028.34577 1.27497 1.50141 2.22028 2.88428 2.22028 1.38293 0 2.53851-.94531 2.88428-2.22028.34558.13923.72082.22028 1.11572.22028 1.38293 0 2.53851-.94531 2.88428-2.22028.34558.13923.72082.22028 1.11572.22028 1.6543 0 3-1.3457 3-3v-21h4v-2h-4z"/><path d="m2 60h60v2h-60z"/><path d="m43 48c-2.75684 0-5-2.24316-5-5h-2c0 3.85986 3.14014 7 7 7z"/><path d="m9 46c-2.75684 0-5-2.24316-5-5h-2c0 3.85986 3.14014 7 7 7z"/><path d="m56 46v2c3.30859 0 6-2.69141 6-6h-2c0 2.20557-1.79443 4-4 4z"/><path d="m20.53564 48.53564c-1.94922 1.94922-5.12207 1.94922-7.07129 0l-1.41406 1.41406c1.36475 1.36475 3.15723 2.04688 4.94971 2.04688s3.58496-.68213 4.94971-2.04688z"/></svg>