<?xml version="1.0" encoding="iso-8859-1"?>
<!-- Generator: Adobe Illustrator 19.0.0, SVG Export Plug-In . SVG Version: 6.00 Build 0)  -->
<svg version="1.1" id="Capa_1" xmlns="http://www.w3.org/2000/svg" xmlns:xlink="http://www.w3.org/1999/xlink" x="0px" y="0px"
	 viewBox="0 0 480 480" style="enable-background:new 0 0 480 480;" xml:space="preserve">
<g>
	<g>
		<path d="M120,32c-49.344,0-88,21.088-88,48s38.656,48,88,48s88-21.088,88-48S169.344,32,120,32z M120,112
			c-42.432,0-72-16.864-72-32s29.568-32,72-32s72,16.864,72,32S162.432,112,120,112z"/>
	</g>
</g>
<g>
	<g>
		<path d="M120,64c-31.848,0-48,5.384-48,16c0,10.616,16.152,16,48,16s48-5.384,48-16C168,69.384,151.848,64,120,64z"/>
	</g>
</g>
<g>
	<g>
		<path d="M472,72H239.392C233.352,31.632,182.12,0,120,0C53.832,0,0,35.888,0,80v360c0,22.056,17.944,40,40,40h192h240
			c4.416,0,8-3.576,8-8V80C480,75.576,476.416,72,472,72z M224,464H40c-13.232,0-24-10.768-24-24V119.736
			C36.728,143.752,75.536,160,120,160s83.272-16.248,104-40.264V464z M120,144c-57.344,0-104-28.712-104-64
			c0-35.288,46.656-64,104-64s104,28.712,104,64C224,115.288,177.344,144,120,144z M464,464H240V88h224V464z"/>
	</g>
</g>
<g>
	<g>
		<path d="M433.144,272c8.352-6.712,14.856-18.736,14.856-40c0-33.296-32.312-75.152-33.688-76.912
			c-3.04-3.888-9.584-3.888-12.624,0C400.312,156.848,368,198.704,368,232c0,1.344,0.096,2.552,0.144,3.824
			C361.832,233.456,353.952,232,344,232c-33.296,0-75.152,32.312-76.92,33.688c-1.944,1.512-3.08,3.84-3.08,6.312
			s1.136,4.8,3.08,6.312C268.848,279.688,310.704,312,344,312c9.952,0,17.832-1.456,24.144-3.824
			c-0.048,1.272-0.144,2.48-0.144,3.824c0,33.296,32.312,75.152,33.688,76.912c1.52,1.944,3.848,3.088,6.312,3.088
			s4.792-1.144,6.312-3.088C415.688,387.152,448,345.296,448,312C448,290.736,441.496,278.712,433.144,272z M374.432,282.096
			c-0.512,0.912-0.96,1.936-1.424,2.944C369.304,291.256,361.224,296,344,296c-19.72,0-45.048-15.12-58.224-24
			c13.176-8.88,38.504-24,58.224-24c17.224,0,25.304,4.744,29.016,10.96c0.456,1.008,0.912,2.024,1.416,2.944
			C375.656,265.16,376,268.648,376,272S375.656,278.84,374.432,282.096z M408,370.224c-8.88-13.176-24-38.496-24-58.224
			c0-8.688,1.216-15.04,3.208-19.696c0.448-0.816,0.856-1.648,1.232-2.48C393.152,281.496,400.904,280,408,280
			c11.176,0,24,3.64,24,32C432,331.728,416.88,357.048,408,370.224z M408,264c-7.096,0-14.848-1.496-19.568-9.832
			c-0.376-0.832-0.784-1.656-1.232-2.48c-1.984-4.648-3.2-11-3.2-19.688c0-19.728,15.12-45.048,24-58.224
			c8.88,13.176,24,38.496,24,58.224C432,260.36,419.176,264,408,264z"/>
	</g>
</g>
<g>
	<g>
		<rect x="256" y="432" width="16" height="16"/>
	</g>
</g>
<g>
	<g>
		<rect x="256" y="400" width="16" height="16"/>
	</g>
</g>
<g>
	<g>
		<rect x="288" y="432" width="16" height="16"/>
	</g>
</g>
<g>
	<g>
		<rect x="320" y="432" width="16" height="16"/>
	</g>
</g>
<g>
</g>
<g>
</g>
<g>
</g>
<g>
</g>
<g>
</g>
<g>
</g>
<g>
</g>
<g>
</g>
<g>
</g>
<g>
</g>
<g>
</g>
<g>
</g>
<g>
</g>
<g>
</g>
<g>
</g>
</svg>
