<svg id="Layer_1_1_" enable-background="new 0 0 64 64" height="512" viewBox="0 0 64 64" width="512" xmlns="http://www.w3.org/2000/svg"><path d="m3 62h8c.55225 0 1-.44775 1-1v-1h33c.17188 0 .34082-.04443.49023-.12842l14.3916-8.09521c1.30665-.73535 2.11817-2.12305 2.11817-3.62158 0-2.29102-1.86377-4.15479-4.15479-4.15479h-.15234c-.59766 0-1.19971.13232-1.74072.38232l-12.17188 5.61768h-4.5448c.49616-.7334.76453-1.59576.76453-2.5 0-2.22461-1.65918-4.1377-3.81445-4.44238-.21973-.04151-.45264-.05762-.68555-.05762h-13.5c-.26514 0-.51953.10547-.70703.29297l-3.70703 3.70703h-5.58594v-1c0-.55225-.44775-1-1-1h-8c-.55225 0-1 .44775-1 1v15c0 .55225.44775 1 1 1zm15-13c.26514 0 .51953-.10547.70703-.29297l3.70703-3.70703h13.08594c.10693 0 .21387.00342.35938.03027 1.22021.17285 2.14062 1.23487 2.14062 2.46973 0 .66162-.2583 1.28418-.74219 1.76807-.46484.47216-1.08935.73193-1.75781.73193h-8.5v2h8.5 8.5c.14453 0 .2876-.03125.41895-.0918l12.37158-5.70996c.28076-.12988.59277-.19824.90234-.19824h.15234c1.18799 0 2.15479.9668 2.15479 2.15479 0 .77734-.4209 1.49707-1.09863 1.87842l-14.16309 7.96679h-32.73828v-9zm-14-2h6v13h-6z"/><path d="m6.15479 20h.15234c.59766 0 1.19971-.13232 1.74072-.38232l12.17188-5.61768h4.54486c-.49616.7334-.76459 1.59576-.76459 2.5 0 2.22461 1.65918 4.1377 3.81445 4.44238.21973.04151.45264.05762.68555.05762h13.5c.26514 0 .51953-.10547.70703-.29297l3.70703-3.70703h5.58594v1c0 .55225.44775 1 1 1h8c.55225 0 1-.44775 1-1v-15c0-.55225-.44775-1-1-1h-8c-.55225 0-1 .44775-1 1v1h-33c-.17188 0-.34082.04443-.49023.12842l-14.3916 8.09521c-1.30665.73535-2.11817 2.12305-2.11817 3.62158 0 2.29102 1.86377 4.15479 4.15479 4.15479zm47.84521-16h6v13h-6zm-48.90137 9.9668 14.16309-7.9668h32.73828v9h-6c-.26514 0-.51953.10547-.70703.29297l-3.70703 3.70703h-13.08594c-.10693 0-.21387-.00342-.35938-.03027-1.22021-.17285-2.14062-1.23487-2.14062-2.46973 0-.66162.2583-1.28418.74219-1.76807.46484-.47216 1.08935-.73193 1.75781-.73193h8.5v-2h-8.5-8.5c-.14453 0-.2876.03125-.41895.0918l-12.37158 5.70996c-.28076.12988-.59277.19824-.90234.19824h-.15234c-1.18799 0-2.15479-.9668-2.15479-2.15479 0-.77734.4209-1.49707 1.09863-1.87841z"/><path d="m32 35c1.6543 0 3-1.3457 3-3s-1.3457-3-3-3-3 1.3457-3 3 1.3457 3 3 3zm0-4c.55127 0 1 .44873 1 1s-.44873 1-1 1-1-.44873-1-1 .44873-1 1-1z"/><path d="m32 39c3.85986 0 7-3.14014 7-7s-3.14014-7-7-7-7 3.14014-7 7 3.14014 7 7 7zm0-12c2.75684 0 5 2.24316 5 5s-2.24316 5-5 5-5-2.24316-5-5 2.24316-5 5-5z"/><path d="m24.22461 36.53564c-.32031-.54688-.58252-1.12988-.78027-1.73291l-1.90039.62207c.24121.73779.5625 1.45166.95508 2.12158z"/><path d="m21.55176 28.55176 1.89941.62695c.19824-.60156.46191-1.18408.78418-1.73145l-1.72461-1.01367c-.39355.66993-.71631 1.38282-.95898 2.11817z"/><path d="m21 32c0 .38818.02051.77197.05957 1.14941l1.98926-.20605c-.03223-.31006-.04883-.62451-.04883-.94336 0-.32471.01709-.646.05078-.96191l-1.98926-.21094c-.04052.38525-.06152.77685-.06152 1.17285z"/><path d="m26.79492 24.65869-1.1582-1.63086c-.63037.44775-1.21631.96484-1.74268 1.53662l1.47168 1.35449c.43213-.46972.9126-.89355 1.4292-1.26025z"/><path d="m26.77979 39.33057c-.5166-.36816-.99609-.79248-1.4248-1.26221l-1.47656 1.34961c.52393.57275 1.10938 1.0918 1.74023 1.5415z"/><path d="m42.45605 28.5752c-.24121-.73779-.5625-1.45166-.95508-2.12158l-1.72559 1.01074c.32031.54688.58252 1.12988.78027 1.73291z"/><path d="m37.22021 24.66943c.5166.36816.99609.79248 1.4248 1.26221l1.47656-1.34961c-.52393-.57275-1.10938-1.0918-1.74023-1.5415z"/><path d="m43 32c0-.38818-.02051-.77197-.05957-1.14941l-1.98926.20605c.03223.31006.04883.62451.04883.94336 0 .32471-.01709.646-.05078.96191l1.98926.21094c.04052-.38525.06152-.77685.06152-1.17285z"/><path d="m40.10596 39.43555-1.47168-1.35449c-.43213.46973-.9126.89355-1.4292 1.26025l1.1582 1.63086c.63037-.44776 1.21631-.96485 1.74268-1.53662z"/><path d="m42.44824 35.44824-1.89941-.62695c-.19824.60156-.46191 1.18408-.78418 1.73145l1.72461 1.01367c.39355-.66993.71631-1.38282.95898-2.11817z"/><path d="m46.95459 33.17432-1.99414-.1543c-.05225.67334-.1582 1.34668-.31494 2.00244l1.94531.46484c.18115-.75683.30322-1.53515.36377-2.31298z"/><path d="m44.80811 39.80176c.40625-.66406.76318-1.36621 1.06104-2.08643l-1.84766-.76465c-.2583.62402-.56787 1.23242-.91943 1.80811z"/><path d="m45.87305 26.29443c-.29688-.71875-.65332-1.4209-1.06006-2.0874l-1.70703 1.04199c.35254.57764.66162 1.18604.91846 1.80811z"/><path d="m46.59277 28.52246-1.94531.46387c.15625.65576.26172 1.32959.31348 2.00293l1.99414-.15332c-.05957-.77735-.18164-1.55567-.36231-2.31348z"/><path d="m19.35449 28.97754-1.94531-.46484c-.18115.75684-.30322 1.53516-.36377 2.31299l1.99414.1543c.05225-.67335.1582-1.34669.31494-2.00245z"/><path d="m17.40723 35.47754 1.94531-.46387c-.15625-.65576-.26172-1.32959-.31348-2.00293l-1.99414.15332c.05957.77735.18164 1.55567.36231 2.31348z"/><path d="m19.19189 24.19824c-.40625.66406-.76318 1.36621-1.06104 2.08643l1.84766.76465c.2583-.62402.56787-1.23242.91943-1.80811z"/><path d="m20.89404 38.75098c-.35254-.57764-.66162-1.18604-.91846-1.80811l-1.84863.7627c.29688.71875.65332 1.4209 1.06006 2.0874z"/></svg>